<svg width="18" height="19" viewBox="0 0 18 19" fill="none" xmlns="http://www.w3.org/2000/svg">
<g opacity="0.7">
<ellipse cx="9" cy="5" rx="5.25" ry="2.25" stroke="#403E3F" stroke-width="1.5"/>
<path d="M14.25 14C14.25 14.2955 14.1142 14.5881 13.8504 14.861C13.5865 15.134 13.1998 15.3821 12.7123 15.591C12.2248 15.7999 11.646 15.9657 11.0091 16.0787C10.3721 16.1918 9.68944 16.25 9 16.25C8.31056 16.25 7.62787 16.1918 6.99091 16.0787C6.35395 15.9657 5.7752 15.7999 5.28769 15.591C4.80018 15.3821 4.41347 15.134 4.14963 14.861C3.8858 14.5881 3.75 14.2955 3.75 14" stroke="#403E3F" stroke-width="1.5"/>
<path d="M14.25 5V14" stroke="#403E3F" stroke-width="1.5"/>
<path d="M3.75 5V14" stroke="#403E3F" stroke-width="1.5"/>
</g>
</svg>
