<svg width="18" height="19" viewBox="0 0 18 19" fill="none" xmlns="http://www.w3.org/2000/svg">
<g opacity="0.7">
<path fill-rule="evenodd" clip-rule="evenodd" d="M4.3786 13.3268C4.53196 13.512 4.69683 13.6885 4.87257 13.855C5.71421 14.6527 6.76899 15.1895 7.90929 15.4003C9.04959 15.6111 10.2265 15.487 11.2978 15.0429C12.369 14.5988 13.2886 13.8538 13.9453 12.8981C14.602 11.9423 14.9676 10.8167 14.998 9.6575C15.0284 8.49828 14.7222 7.35509 14.1165 6.36624C13.5108 5.37738 12.6315 4.58525 11.585 4.08566C11.0808 3.84498 10.5483 3.67717 10.0032 3.58473L10.4464 5.23906C10.6138 5.29586 10.7782 5.36266 10.9388 5.43931C11.7236 5.814 12.3831 6.40811 12.8374 7.14975C13.2917 7.89139 13.5213 8.74878 13.4985 9.6182C13.4757 10.4876 13.2015 11.3318 12.709 12.0486C12.2164 12.7654 11.5268 13.3242 10.7233 13.6572C9.91992 13.9903 9.0372 14.0834 8.18198 13.9253C7.38384 13.7777 6.64156 13.4173 6.03294 12.8835L4.3786 13.3268Z" fill="#403E3F"/>
<path d="M4.43429 3.54985C4.95055 3.15371 5.51502 2.82732 6.11301 2.57791C6.51994 2.4082 6.7234 2.32334 6.92704 2.42345C7.13067 2.52356 7.19301 2.7562 7.31768 3.22148L8.74118 8.53407C8.86319 8.98942 8.92419 9.21709 8.82064 9.39645C8.71709 9.57581 8.48942 9.63681 8.03407 9.75882L2.72148 11.1823C2.2562 11.307 2.02357 11.3693 1.83505 11.243C1.64653 11.1167 1.61829 10.8981 1.5618 10.4608C1.4788 9.81826 1.47923 9.16622 1.56416 8.52105C1.69272 7.54457 2.01235 6.60296 2.50481 5.75C2.99727 4.89704 3.6529 4.14943 4.43429 3.54985Z" stroke="#403E3F" stroke-width="1.5"/>
</g>
</svg>
