<svg width="18" height="19" viewBox="0 0 18 19" fill="none" xmlns="http://www.w3.org/2000/svg">
<g opacity="0.7">
<path d="M4.22703 4.72703C3.12278 5.83128 2.43557 7.28425 2.2825 8.83838C2.12943 10.3925 2.51997 11.9516 3.38758 13.2501C4.25518 14.5486 5.54617 15.506 7.04058 15.9593C8.53498 16.4127 10.1403 16.3338 11.5831 15.7362C13.0259 15.1386 14.2168 14.0592 14.953 12.6819C15.6891 11.3047 15.925 9.71478 15.6203 8.18314C15.3156 6.6515 14.4893 5.27288 13.2822 4.28218C12.075 3.29148 10.5616 2.75 9 2.75" stroke="#403E3F" stroke-width="1.5" stroke-linecap="round"/>
<path d="M9 9.5L4.5 5" stroke="#403E3F" stroke-width="1.5" stroke-linecap="round"/>
<path d="M9 2.75V4.25" stroke="#403E3F" stroke-width="1.5" stroke-linecap="round"/>
<path d="M15.75 9.5L14.25 9.5" stroke="#403E3F" stroke-width="1.5" stroke-linecap="round"/>
<path d="M9 14.75V16.25" stroke="#403E3F" stroke-width="1.5" stroke-linecap="round"/>
<path d="M3.75 9.5L2.25 9.5" stroke="#403E3F" stroke-width="1.5" stroke-linecap="round"/>
</g>
</svg>
