<svg width="18" height="19" viewBox="0 0 18 19" fill="none" xmlns="http://www.w3.org/2000/svg">
<g opacity="0.7">
<path d="M15.75 10.25H16.5H15.75ZM14.9953 4.41821L15.7441 4.46026L14.9953 4.41821ZM12.1682 7.24528L12.2103 7.9941L12.1682 7.24528ZM11.3261 12.6327L12.019 12.3457L11.3261 12.6327ZM11.8673 13.1739L12.1543 12.481L11.8673 13.1739ZM11.3261 10.8673L10.6332 10.5803L11.3261 10.8673ZM11.8673 10.3261L11.5803 9.63321L11.8673 10.3261ZM15.4571 7.54289L15.9874 7.01256L15.4571 7.54289ZM13.75 16.25V15.5V16.25ZM15.4571 15.9571L15.9874 16.4874L15.4571 15.9571ZM6.25001 16.25V17V16.25ZM2.83579 15.6642L3.36612 15.1339L2.83579 15.6642ZM14.528 3.50079L14.486 4.24961L14.528 3.50079ZM14.9992 3.97196L15.748 3.92991L14.9992 3.97196ZM4.12501 4.25L14.4643 4.25V2.75L4.12501 2.75V4.25ZM6.25001 17L13.75 17V15.5L6.25001 15.5V17ZM1.50001 5.375L1.50001 12.25L3.00001 12.25L3.00001 5.375H1.50001ZM13.75 6.5L4.125 6.5V8L13.75 8V6.5ZM15 13.25L15 14.25H16.5V13.25H15ZM15 9.25V10.25H16.5L16.5 9.25H15ZM12.75 14H15.75V12.5H12.75V14ZM15 10.25L15 13.25H16.5L16.5 10.25H15ZM15.75 9.5H12.75V11H15.75L15.75 9.5ZM11.7857 6.5H11.25L11.25 8H11.7857V6.5ZM14.25 4.03571C14.25 4.24487 14.2497 4.31843 14.2465 4.37616L15.7441 4.46026C15.7503 4.34992 15.75 4.2245 15.75 4.03571H14.25ZM11.7857 8C11.9745 8 12.0999 8.0003 12.2103 7.9941L12.1262 6.49646C12.0684 6.4997 11.9949 6.5 11.7857 6.5V8ZM14.2465 4.37616C14.1823 5.51952 13.2695 6.43225 12.1262 6.49646L12.2103 7.9941C14.1159 7.88708 15.6371 6.36586 15.7441 4.46026L14.2465 4.37616ZM10.5 11.75C10.5 11.9727 10.4996 12.1773 10.5113 12.3482C10.5234 12.5259 10.551 12.7212 10.6332 12.9197L12.019 12.3457C12.0251 12.3604 12.0147 12.3474 12.0078 12.2461C12.0004 12.1381 12 11.9932 12 11.75H10.5ZM12.75 12.5C12.5068 12.5 12.3619 12.4996 12.2539 12.4922C12.1526 12.4853 12.1396 12.4749 12.1543 12.481L11.5803 13.8668C11.7788 13.949 11.9741 13.9766 12.1518 13.9887C12.3227 14.0004 12.5273 14 12.75 14V12.5ZM10.6332 12.9197C10.8108 13.3485 11.1515 13.6892 11.5803 13.8668L12.1543 12.481C12.0931 12.4556 12.0444 12.4069 12.019 12.3457L10.6332 12.9197ZM12 11.75C12 11.5068 12.0004 11.3619 12.0078 11.2539C12.0147 11.1526 12.0251 11.1396 12.019 11.1543L10.6332 10.5803C10.551 10.7788 10.5234 10.9741 10.5113 11.1518C10.4996 11.3227 10.5 11.5273 10.5 11.75H12ZM12.75 9.5C12.5273 9.5 12.3227 9.49959 12.1518 9.51125C11.9741 9.52338 11.7788 9.55099 11.5803 9.63321L12.1543 11.019C12.1396 11.0251 12.1526 11.0147 12.2539 11.0078C12.3619 11.0004 12.5068 11 12.75 11V9.5ZM12.019 11.1543C12.0444 11.0931 12.0931 11.0444 12.1543 11.019L11.5803 9.63321C11.1515 9.81083 10.8108 10.1515 10.6332 10.5803L12.019 11.1543ZM13.75 8C14.2426 8 14.5366 8.00159 14.7473 8.02992C14.8439 8.04291 14.8923 8.0582 14.914 8.06716C14.9191 8.06923 14.9224 8.07085 14.9243 8.07186C14.9262 8.07286 14.9271 8.07341 14.9272 8.07347C14.9272 8.07351 14.927 8.07335 14.9266 8.07307C14.9263 8.07279 14.9263 8.07277 14.9268 8.07322L15.9874 7.01256C15.6784 6.70354 15.3027 6.59109 14.9472 6.5433C14.6133 6.49841 14.2002 6.5 13.75 6.5V8ZM16.5 9.25C16.5 8.7998 16.5016 8.3867 16.4567 8.05279C16.4089 7.69731 16.2965 7.32159 15.9874 7.01256L14.9268 8.07322C14.9272 8.07368 14.9272 8.0737 14.9269 8.07335C14.9266 8.073 14.9265 8.07277 14.9265 8.07283C14.9266 8.07292 14.9271 8.07376 14.9281 8.07567C14.9291 8.0776 14.9308 8.08092 14.9328 8.08596C14.9418 8.10774 14.9571 8.15611 14.9701 8.25266C14.9984 8.46339 15 8.75739 15 9.25H16.5ZM13.75 17C14.2002 17 14.6133 17.0016 14.9472 16.9567C15.3027 16.9089 15.6784 16.7965 15.9874 16.4874L14.9268 15.4268C14.9263 15.4272 14.9263 15.4272 14.9266 15.4269C14.927 15.4266 14.9272 15.4265 14.9272 15.4265C14.9271 15.4266 14.9262 15.4271 14.9243 15.4281C14.9224 15.4291 14.9191 15.4308 14.914 15.4328C14.8923 15.4418 14.8439 15.4571 14.7473 15.4701C14.5366 15.4984 14.2426 15.5 13.75 15.5V17ZM15 14.25C15 14.7426 14.9984 15.0366 14.9701 15.2473C14.9571 15.3439 14.9418 15.3923 14.9328 15.414C14.9308 15.4191 14.9291 15.4224 14.9281 15.4243C14.9271 15.4262 14.9266 15.4271 14.9265 15.4272C14.9265 15.4272 14.9266 15.427 14.9269 15.4266C14.9272 15.4263 14.9272 15.4263 14.9268 15.4268L15.9874 16.4874C16.2965 16.1784 16.4089 15.8027 16.4567 15.4472C16.5016 15.1133 16.5 14.7002 16.5 14.25H15ZM6.25001 15.5C5.28599 15.5 4.63843 15.4984 4.1554 15.4335C3.69394 15.3714 3.49644 15.2642 3.36612 15.1339L2.30546 16.1945C2.76093 16.65 3.32773 16.8357 3.95553 16.9201C4.56175 17.0016 5.3284 17 6.25001 17V15.5ZM1.50001 12.25C1.50001 13.1716 1.49841 13.9383 1.57992 14.5445C1.66432 15.1723 1.84999 15.7391 2.30546 16.1945L3.36612 15.1339C3.23581 15.0036 3.12858 14.8061 3.06654 14.3446C3.0016 13.8616 3.00001 13.214 3.00001 12.25L1.50001 12.25ZM1.50001 5.375C1.50001 6.82475 2.67526 8 4.125 8V6.5C3.50368 6.5 3.00001 5.99632 3.00001 5.375H1.50001ZM14.4643 4.25C14.4728 4.25 14.4793 4.25 14.4848 4.25001C14.4904 4.25002 14.4938 4.25004 14.496 4.25006C14.5007 4.25011 14.4954 4.25014 14.486 4.24961L14.5701 2.75197C14.5298 2.7497 14.4873 2.75 14.4643 2.75V4.25ZM15.75 4.03571C15.75 4.01273 15.7503 3.97022 15.748 3.92991L14.2504 4.01402C14.2499 4.00455 14.2499 3.99927 14.2499 4.004C14.25 4.00619 14.25 4.0096 14.25 4.01517C14.25 4.02074 14.25 4.02722 14.25 4.03571H15.75ZM14.486 4.24961C14.3589 4.24247 14.2575 4.14106 14.2504 4.01402L15.748 3.92991C15.7124 3.29471 15.2053 2.78764 14.5701 2.75197L14.486 4.24961ZM3.00001 5.375C3.00001 4.75368 3.50368 4.25 4.12501 4.25V2.75C2.67526 2.75 1.50001 3.92525 1.50001 5.375H3.00001Z" fill="#403E3F"/>
</g>
</svg>
